<?xml version="1.0" encoding="UTF-8" standalone="no"?>
<svg width="60px" height="51px" viewBox="0 0 60 51" version="1.1" xmlns="http://www.w3.org/2000/svg" xmlns:xlink="http://www.w3.org/1999/xlink">
    <!-- Generator: Sketch 40.1 (33804) - http://www.bohemiancoding.com/sketch -->
    <title>102 - Book Stand (households, furniture, belongings, cartoony)</title>
    <desc>Created with Sketch.</desc>
    <defs></defs>
    <g id="Page-1" stroke="none" stroke-width="1" fill="none" fill-rule="evenodd">
        <g id="Icons" transform="translate(-1080.000000, -1826.000000)">
            <g id="102---Book-Stand-(households,-furniture,-belongings,-cartoony)" transform="translate(1081.000000, 1827.000000)">
                <path d="M16.0245,8 C15.3895,9.593 14.9995,11.692 14.9995,14 C14.9995,18.97 16.7905,23 18.9995,23 C21.2095,23 22.9995,18.97 22.9995,14 C22.9995,11.692 22.6105,9.593 21.9755,8 L16.0245,8 Z" id="Fill-4146" fill="#3D82F1"></path>
                <polygon id="Fill-4147" fill="#B374F5" points="28 23 40 23 40 19 28 19"></polygon>
                <path d="M49,41 L38,41 C33.029,41 29,36.971 29,32 C29,27.029 33.029,23 38,23 L49,23 C53.971,23 58,27.029 58,32 C58,36.971 53.971,41 49,41" id="Fill-4148" fill="#00AB54"></path>
                <path d="M20,41 L9,41 C4.029,41 0,36.971 0,32 C0,27.029 4.029,23 9,23 L20,23 C24.971,23 29,27.029 29,32 C29,36.971 24.971,41 20,41" id="Fill-4149" fill="#FFFFFF"></path>
                <path d="M46,41 L12,41 C7.029,41 3,36.971 3,32 C3,27.029 7.029,23 12,23 L46,23 C50.971,23 55,27.029 55,32 C55,36.971 50.971,41 46,41" id="Fill-4150" fill="#00D96C"></path>
                <polygon id="Fill-4151" fill="#3D82F1" points="16 41 20 41 20 28 16 28"></polygon>
                <polygon id="Fill-4152" fill="#FEE000" points="20 41 24 41 24 30 20 30"></polygon>
                <polygon id="Fill-4153" fill="#3D82F1" points="24 41 28 41 28 27 24 27"></polygon>
                <polygon id="Fill-4154" fill="#F1363E" points="28 32 38 32 38 28 28 28"></polygon>
                <polygon id="Fill-4155" fill="#FEE000" points="28 36 40 36 40 32 28 32"></polygon>
                <polygon id="Fill-4156" fill="#F1363E" points="28 40 42 40 42 36 28 36"></polygon>
                <path d="M16.0245,8 C15.3895,9.593 14.9995,11.692 14.9995,14 C14.9995,18.97 16.7905,23 18.9995,23 C21.2095,23 22.9995,18.97 22.9995,14 C22.9995,11.692 22.6105,9.593 21.9755,8 L16.0245,8 L16.0245,8 Z" id="Stroke-4417" stroke="#000000" stroke-width="2" stroke-linecap="round"></path>
                <path d="M19,8 C19,4.684 21.684,2 25,2" id="Stroke-4418" stroke="#000000" stroke-width="2" stroke-linecap="round"></path>
                <path d="M19,8 C19,4.684 16.316,2 13,2" id="Stroke-4419" stroke="#000000" stroke-width="2" stroke-linecap="round"></path>
                <path d="M19,8 L19,0" id="Stroke-4420" stroke="#000000" stroke-width="2" stroke-linecap="round"></path>
                <path d="M49,41 L9,41 C4.029,41 0,36.971 0,32 C0,27.029 4.029,23 9,23 L49,23 C53.971,23 58,27.029 58,32 C58,36.971 53.971,41 49,41 L49,41 Z" id="Stroke-4421" stroke="#000000" stroke-width="2" stroke-linecap="round"></path>
                <path d="M13,41 L8,49" id="Stroke-4422" stroke="#000000" stroke-width="2" stroke-linecap="round"></path>
                <path d="M47,41 L52,49" id="Stroke-4423" stroke="#000000" stroke-width="2" stroke-linecap="round"></path>
                <polygon id="Stroke-4424" stroke="#000000" stroke-width="2" stroke-linecap="round" points="16 41 20 41 20 28 16 28"></polygon>
                <polygon id="Stroke-4425" stroke="#000000" stroke-width="2" stroke-linecap="round" points="20 41 24 41 24 30 20 30"></polygon>
                <polygon id="Stroke-4426" stroke="#000000" stroke-width="2" stroke-linecap="round" points="24 41 28 41 28 27 24 27"></polygon>
                <polygon id="Stroke-4427" stroke="#000000" stroke-width="2" stroke-linecap="round" points="28 32 38 32 38 28 28 28"></polygon>
                <polygon id="Stroke-4428" stroke="#000000" stroke-width="2" stroke-linecap="round" points="28 36 40 36 40 32 28 32"></polygon>
                <polygon id="Stroke-4429" stroke="#000000" stroke-width="2" stroke-linecap="round" points="28 23 40 23 40 19 28 19"></polygon>
                <polygon id="Stroke-4430" stroke="#000000" stroke-width="2" stroke-linecap="round" points="28 40 42 40 42 36 28 36"></polygon>
            </g>
        </g>
    </g>
</svg>